<?xml version="1.0" encoding="UTF-8"?>
<!DOCTYPE svg PUBLIC "-//W3C//DTD SVG 1.1//EN" "http://www.w3.org/Graphics/SVG/1.1/DTD/svg11.dtd">
<!-- Creator: CorelDRAW 2018 (64-Bit Evaluation Version) -->
<svg xmlns="http://www.w3.org/2000/svg" xml:space="preserve" width="84px" height="128px" version="1.1" style="shape-rendering:geometricPrecision; text-rendering:geometricPrecision; image-rendering:optimizeQuality; fill-rule:evenodd; clip-rule:evenodd"
viewBox="0 0 697.2 1061.9"
 xmlns:xlink="http://www.w3.org/1999/xlink">
 <defs>
  <style type="text/css">
   <![CDATA[
    .fil0 {fill:#E83112}
   ]]>
  </style>
 </defs>
 <g id="Layer_x0020_1">
  <metadata id="CorelCorpID_0Corel-Layer"/>
  <polygon class="fil0" points="312.7,0 291.7,0 291.7,1 288.8,1 288.8,1.9 286,1.9 286,2.9 284,2.9 284,3.9 281.2,3.9 281.2,4.8 278.3,4.8 278.3,5.8 276.4,5.8 276.4,6.8 273.5,6.8 273.5,7.7 271.6,7.7 271.6,8.7 269.7,8.7 269.7,9.6 266.8,9.6 266.8,10.6 264.9,10.6 264.9,11.6 262,11.6 262,12.5 260.1,12.5 260.1,13.5 258.2,13.5 258.2,14.5 256.3,14.5 256.3,15.4 253.4,15.4 253.4,16.4 251.5,16.4 251.5,17.4 249.6,17.4 249.6,18.3 247.7,18.3 247.7,19.3 244.8,19.3 244.8,20.3 242.9,20.3 242.9,21.2 241,21.2 241,22.2 239.1,22.2 239.1,23.1 237.2,23.1 237.2,24.1 235.3,24.1 235.3,25.1 233.4,25.1 233.4,26 231.4,26 231.4,27 229.5,27 229.5,28 227.6,28 227.6,28.9 225.7,28.9 225.7,29.9 223.8,29.9 223.8,30.9 221.9,30.9 221.9,31.8 220,31.8 220,32.8 218.1,32.8 218.1,33.8 216.1,33.8 216.1,34.7 214.2,34.7 214.2,35.7 213.3,35.7 213.3,36.7 211.4,36.7 211.4,37.6 209.4,37.6 209.4,38.6 207.5,38.6 207.5,39.5 205.6,39.5 205.6,40.5 204.7,40.5 204.7,41.5 202.8,41.5 202.8,42.4 200.8,42.4 200.8,43.4 198.9,43.4 198.9,44.4 198,44.4 198,45.3 196.1,45.3 196.1,46.3 194.1,46.3 194.1,47.3 193.2,47.3 193.2,48.2 191.3,48.2 191.3,49.2 189.4,49.2 189.4,50.2 188.4,50.2 188.4,51.1 186.5,51.1 186.5,52.1 184.6,52.1 184.6,53 183.6,53 183.6,54 181.7,54 181.7,55 180.8,55 180.8,55.9 178.8,55.9 178.8,56.9 176.9,56.9 176.9,57.9 176,57.9 176,58.8 174.1,58.8 174.1,59.8 173.1,59.8 173.1,60.8 171.2,60.8 171.2,61.7 170.2,61.7 170.2,62.7 168.3,62.7 168.3,63.7 167.4,63.7 167.4,64.6 166.4,64.6 166.4,65.6 164.5,65.6 164.5,66.6 163.5,66.6 163.5,67.5 161.6,67.5 161.6,68.5 160.7,68.5 160.7,69.4 158.8,69.4 158.8,70.4 157.8,70.4 157.8,71.4 156.8,71.4 156.8,72.3 154.9,72.3 154.9,73.3 154,73.3 154,74.3 153,74.3 153,75.2 151.1,75.2 151.1,76.2 150.2,76.2 150.2,77.2 149.2,77.2 149.2,78.1 147.3,78.1 147.3,79.1 146.3,79.1 146.3,80.1 145.4,80.1 145.4,81 143.5,81 143.5,82 142.5,82 142.5,82.9 141.5,82.9 141.5,83.9 140.6,83.9 140.6,84.9 138.7,84.9 138.7,85.8 137.7,85.8 137.7,86.8 136.8,86.8 136.8,87.8 135.8,87.8 135.8,88.7 134.8,88.7 134.8,89.7 132.9,89.7 132.9,90.7 132,90.7 132,91.6 131,91.6 131,92.6 130.1,92.6 130.1,93.6 129.1,93.6 129.1,94.5 128.2,94.5 128.2,95.5 126.2,95.5 126.2,96.5 125.3,96.5 125.3,97.4 124.3,97.4 124.3,98.4 123.4,98.4 123.4,99.3 122.4,99.3 122.4,100.3 121.5,100.3 121.5,101.3 120.5,101.3 120.5,102.2 119.5,102.2 119.5,103.2 117.6,103.2 117.6,104.2 116.7,104.2 116.7,105.1 115.7,105.1 115.7,106.1 114.8,106.1 114.8,107.1 113.8,107.1 113.8,108 112.9,108 112.9,109 111.9,109 111.9,110 110.9,110 110.9,110.9 110,110.9 110,111.9 109,111.9 109,112.8 108.1,112.8 108.1,113.8 107.1,113.8 107.1,114.8 106.2,114.8 106.2,115.7 105.2,115.7 105.2,116.7 104.2,116.7 104.2,117.7 103.3,117.7 103.3,118.6 102.3,118.6 102.3,119.6 101.4,119.6 101.4,120.6 100.4,120.6 100.4,121.5 99.5,121.5 99.5,122.5 98.5,122.5 98.5,123.5 97.6,123.5 97.6,124.4 96.6,124.4 96.6,125.4 95.6,125.4 95.6,127.3 94.7,127.3 94.7,128.3 93.7,128.3 93.7,129.2 92.8,129.2 92.8,130.2 91.8,130.2 91.8,131.2 90.9,131.2 90.9,132.1 89.9,132.1 89.9,133.1 88.9,133.1 88.9,134.1 88,134.1 88,136 87,136 87,137 86.1,137 86.1,137.9 85.1,137.9 85.1,138.9 84.2,138.9 84.2,139.9 83.2,139.9 83.2,140.8 82.2,140.8 82.2,142.7 81.3,142.7 81.3,143.7 80.3,143.7 80.3,144.7 79.4,144.7 79.4,145.6 78.4,145.6 78.4,147.6 77.5,147.6 77.5,148.5 76.5,148.5 76.5,149.5 75.6,149.5 75.6,150.5 74.6,150.5 74.6,152.4 73.6,152.4 73.6,153.4 72.7,153.4 72.7,154.3 71.7,154.3 71.7,156.3 70.8,156.3 70.8,157.2 69.8,157.2 69.8,158.2 68.9,158.2 68.9,160.1 67.9,160.1 67.9,161.1 66.9,161.1 66.9,163 66,163 66,164 65,164 65,164.9 64.1,164.9 64.1,166.9 63.1,166.9 63.1,167.8 62.2,167.8 62.2,169.8 61.2,169.8 61.2,170.7 60.3,170.7 60.3,172.6 59.3,172.6 59.3,173.6 58.3,173.6 58.3,175.5 57.4,175.5 57.4,176.5 56.4,176.5 56.4,178.4 55.5,178.4 55.5,179.4 54.5,179.4 54.5,181.3 53.6,181.3 53.6,183.3 52.6,183.3 52.6,184.2 51.6,184.2 51.6,186.2 50.7,186.2 50.7,188.1 49.7,188.1 49.7,189 48.8,189 48.8,191 47.8,191 47.8,192.9 46.9,192.9 46.9,194.8 45.9,194.8 45.9,195.8 44.9,195.8 44.9,197.7 44,197.7 44,199.7 43,199.7 43,201.6 42.1,201.6 42.1,203.5 41.1,203.5 41.1,205.4 40.2,205.4 40.2,207.4 39.2,207.4 39.2,208.3 38.3,208.3 38.3,210.3 37.3,210.3 37.3,212.2 36.3,212.2 36.3,215.1 35.4,215.1 35.4,217 34.4,217 34.4,218.9 33.5,218.9 33.5,220.9 32.5,220.9 32.5,222.8 31.6,222.8 31.6,224.7 30.6,224.7 30.6,227.6 29.6,227.6 29.6,229.6 28.7,229.6 28.7,231.5 27.7,231.5 27.7,234.4 26.8,234.4 26.8,236.3 25.8,236.3 25.8,239.2 24.9,239.2 24.9,241.1 23.9,241.1 23.9,244 23,244 23,246 22,246 22,248.8 21,248.8 21,251.7 20.1,251.7 20.1,254.6 19.1,254.6 19.1,257.5 18.2,257.5 18.2,260.4 17.2,260.4 17.2,262.4 16.3,262.4 16.3,267.2 15.3,267.2 15.3,269.1 14.3,269.1 14.3,272 13.4,272 13.4,275.9 12.4,275.9 12.4,280.7 11.5,280.7 11.5,284.5 10.5,284.5 10.5,288.4 9.6,288.4 9.6,291.3 8.6,291.3 8.6,297.1 7.7,297.1 7.7,300.9 6.7,300.9 6.7,305.8 5.7,305.8 5.7,309.6 4.8,309.6 4.8,316.4 3.8,316.4 3.8,323.1 2.9,323.1 2.9,330.8 1.9,330.8 1.9,336.6 1,336.6 1,348.2 0,348.2 0,407 1,407 1,418.6 1.9,418.6 1.9,424.4 2.9,424.4 2.9,431.1 3.8,431.1 3.8,437.9 4.8,437.9 4.8,442.7 5.7,442.7 5.7,443.7 6.7,443.7 6.7,444.6 7.7,444.6 7.7,445.6 8.6,445.6 8.6,446.6 9.6,446.6 9.6,447.5 10.5,447.5 10.5,448.5 11.5,448.5 11.5,449.5 12.4,449.5 12.4,450.4 13.4,450.4 13.4,451.4 14.3,451.4 14.3,452.4 15.3,452.4 15.3,453.3 16.3,453.3 16.3,454.3 17.2,454.3 17.2,455.3 18.2,455.3 18.2,456.2 19.1,456.2 19.1,457.2 20.1,457.2 20.1,458.1 21,458.1 21,460.1 22,460.1 22,461 23,461 23,462 23.9,462 23.9,463 24.9,463 24.9,463.9 25.8,463.9 25.8,464.9 26.8,464.9 26.8,465.9 27.7,465.9 27.7,466.8 28.7,466.8 28.7,467.8 29.6,467.8 29.6,468.8 30.6,468.8 30.6,469.7 31.6,469.7 31.6,470.7 32.5,470.7 32.5,471.7 33.5,471.7 33.5,472.6 34.4,472.6 34.4,473.6 35.4,473.6 35.4,474.5 36.3,474.5 36.3,475.5 37.3,475.5 37.3,476.5 38.3,476.5 38.3,477.4 39.2,477.4 39.2,478.4 40.2,478.4 40.2,479.4 41.1,479.4 41.1,480.3 42.1,480.3 42.1,482.3 43,482.3 43,483.2 44,483.2 44,484.2 44.9,484.2 44.9,485.2 45.9,485.2 45.9,486.1 46.9,486.1 46.9,487.1 47.8,487.1 47.8,488 48.8,488 48.8,489 49.7,489 49.7,490 50.7,490 50.7,490.9 51.6,490.9 51.6,491.9 52.6,491.9 52.6,492.9 53.6,492.9 53.6,493.8 54.5,493.8 54.5,494.8 55.5,494.8 55.5,495.8 56.4,495.8 56.4,496.7 57.4,496.7 57.4,497.7 58.3,497.7 58.3,498.7 59.3,498.7 59.3,499.6 60.3,499.6 60.3,500.6 61.2,500.6 61.2,501.6 62.2,501.6 62.2,502.5 63.1,502.5 63.1,503.5 64.1,503.5 64.1,505.4 65,505.4 65,506.4 66,506.4 66,507.3 66.9,507.3 66.9,508.3 67.9,508.3 67.9,509.3 68.9,509.3 68.9,510.2 69.8,510.2 69.8,511.2 70.8,511.2 70.8,512.2 71.7,512.2 71.7,513.1 72.7,513.1 72.7,514.1 73.6,514.1 73.6,515.1 74.6,515.1 74.6,516 75.6,516 75.6,517 76.5,517 76.5,517.9 77.5,517.9 77.5,518.9 78.4,518.9 78.4,519.9 79.4,519.9 79.4,520.8 80.3,520.8 80.3,521.8 81.3,521.8 81.3,522.8 82.2,522.8 82.2,523.7 83.2,523.7 83.2,524.7 84.2,524.7 84.2,525.7 85.1,525.7 85.1,526.6 86.1,526.6 86.1,528.6 87,528.6 87,529.5 88,529.5 88,530.5 88.9,530.5 88.9,531.5 89.9,531.5 89.9,532.4 90.9,532.4 90.9,533.4 91.8,533.4 91.8,534.3 92.8,534.3 92.8,535.3 93.7,535.3 93.7,536.3 94.7,536.3 94.7,537.2 95.6,537.2 95.6,538.2 96.6,538.2 96.6,539.2 97.6,539.2 97.6,540.1 98.5,540.1 98.5,541.1 99.5,541.1 99.5,542.1 100.4,542.1 100.4,543 101.4,543 101.4,544 102.3,544 102.3,545 103.3,545 103.3,545.9 104.2,545.9 104.2,546.9 105.2,546.9 105.2,547.8 106.2,547.8 106.2,548.8 107.1,548.8 107.1,550.7 108.1,550.7 108.1,551.7 109,551.7 109,552.7 110,552.7 110,553.6 110.9,553.6 110.9,554.6 111.9,554.6 111.9,555.6 112.9,555.6 112.9,556.5 113.8,556.5 113.8,557.5 114.8,557.5 114.8,558.5 115.7,558.5 115.7,559.4 116.7,559.4 116.7,560.4 117.6,560.4 117.6,561.4 118.6,561.4 118.6,562.3 119.5,562.3 119.5,563.3 120.5,563.3 120.5,564.2 121.5,564.2 121.5,565.2 122.4,565.2 122.4,566.2 123.4,566.2 123.4,567.1 124.3,567.1 124.3,568.1 125.3,568.1 125.3,569.1 126.2,569.1 126.2,570 127.2,570 127.2,571 128.2,571 128.2,572.9 129.1,572.9 129.1,573.9 130.1,573.9 130.1,574.9 131,574.9 131,575.8 132,575.8 132,576.8 132.9,576.8 132.9,577.7 133.9,577.7 133.9,578.7 134.8,578.7 134.8,579.7 135.8,579.7 135.8,580.6 136.8,580.6 136.8,581.6 137.7,581.6 137.7,582.6 138.7,582.6 138.7,583.5 139.6,583.5 139.6,584.5 140.6,584.5 140.6,585.5 141.5,585.5 141.5,586.4 142.5,586.4 142.5,587.4 143.5,587.4 143.5,588.4 144.4,588.4 144.4,589.3 145.4,589.3 145.4,590.3 146.3,590.3 146.3,591.3 147.3,591.3 147.3,592.2 148.2,592.2 148.2,593.2 149.2,593.2 149.2,595.1 150.2,595.1 150.2,596.1 151.1,596.1 151.1,597 152.1,597 152.1,598 153,598 153,599 154,599 154,599.9 154.9,599.9 154.9,600.9 155.9,600.9 155.9,601.9 156.8,601.9 156.8,602.8 157.8,602.8 157.8,603.8 158.8,603.8 158.8,604.8 159.7,604.8 159.7,605.7 160.7,605.7 160.7,606.7 161.6,606.7 161.6,607.7 162.6,607.7 162.6,608.6 163.5,608.6 163.5,609.6 164.5,609.6 164.5,610.5 165.5,610.5 165.5,611.5 166.4,611.5 166.4,612.5 167.4,612.5 167.4,613.4 168.3,613.4 168.3,614.4 169.3,614.4 169.3,615.4 170.2,615.4 170.2,616.3 171.2,616.3 171.2,618.3 172.1,618.3 172.1,619.2 173.1,619.2 173.1,620.2 174.1,620.2 174.1,621.2 175,621.2 175,622.1 176,622.1 176,623.1 176.9,623.1 176.9,624 177.9,624 177.9,625 178.8,625 178.8,626 179.8,626 179.8,626.9 180.8,626.9 180.8,627.9 181.7,627.9 181.7,628.9 182.7,628.9 182.7,629.8 183.6,629.8 183.6,630.8 184.6,630.8 184.6,631.8 185.5,631.8 185.5,632.7 186.5,632.7 186.5,633.7 187.4,633.7 187.4,634.7 188.4,634.7 188.4,635.6 189.4,635.6 189.4,636.6 190.3,636.6 190.3,637.5 191.3,637.5 191.3,638.5 192.2,638.5 192.2,640.4 193.2,640.4 193.2,641.4 194.1,641.4 194.1,642.4 195.1,642.4 195.1,643.3 196.1,643.3 196.1,644.3 197,644.3 197,645.3 198,645.3 198,646.2 198.9,646.2 198.9,647.2 199.9,647.2 199.9,648.2 200.8,648.2 200.8,649.1 201.8,649.1 201.8,650.1 202.8,650.1 202.8,651.1 203.7,651.1 203.7,652 204.7,652 204.7,653 205.6,653 205.6,653.9 206.6,653.9 206.6,654.9 207.5,654.9 207.5,655.9 208.5,655.9 208.5,656.8 209.4,656.8 209.4,657.8 210.4,657.8 210.4,658.8 211.4,658.8 211.4,659.7 212.3,659.7 212.3,660.7 213.3,660.7 213.3,662.6 214.2,662.6 214.2,663.6 215.2,663.6 215.2,664.6 216.1,664.6 216.1,665.5 217.1,665.5 217.1,666.5 218.1,666.5 218.1,667.5 219,667.5 219,668.4 220,668.4 220,669.4 220.9,669.4 220.9,670.3 221.9,670.3 221.9,671.3 222.8,671.3 222.8,672.3 223.8,672.3 223.8,673.2 224.7,673.2 224.7,674.2 225.7,674.2 225.7,675.2 226.7,675.2 226.7,676.1 227.6,676.1 227.6,677.1 228.6,677.1 228.6,678.1 229.5,678.1 229.5,679 230.5,679 230.5,680 231.4,680 231.4,681 232.4,681 232.4,681.9 233.4,681.9 233.4,682.9 234.3,682.9 234.3,684.8 235.3,684.8 235.3,685.8 236.2,685.8 236.2,686.7 237.2,686.7 237.2,687.7 238.1,687.7 238.1,688.7 239.1,688.7 239.1,689.6 240.1,689.6 240.1,690.6 241,690.6 241,691.6 242,691.6 242,692.5 242.9,692.5 242.9,693.5 243.9,693.5 243.9,694.5 244.8,694.5 244.8,695.4 245.8,695.4 245.8,696.4 246.7,696.4 246.7,697.4 247.7,697.4 247.7,698.3 248.7,698.3 248.7,699.3 249.6,699.3 249.6,700.2 250.6,700.2 250.6,701.2 251.5,701.2 251.5,702.2 252.5,702.2 252.5,703.1 253.4,703.1 253.4,704.1 254.4,704.1 254.4,705.1 255.4,705.1 255.4,706 256.3,706 256.3,708 257.3,708 257.3,708.9 258.2,708.9 258.2,709.9 259.2,709.9 259.2,710.9 260.1,710.9 260.1,711.8 261.1,711.8 261.1,712.8 262,712.8 262,713.7 263,713.7 263,714.7 264,714.7 264,715.7 264.9,715.7 264.9,716.6 265.9,716.6 265.9,717.6 266.8,717.6 266.8,718.6 267.8,718.6 267.8,719.5 268.7,719.5 268.7,720.5 269.7,720.5 269.7,721.5 270.7,721.5 270.7,722.4 271.6,722.4 271.6,723.4 272.6,723.4 272.6,724.4 273.5,724.4 273.5,725.3 274.5,725.3 274.5,726.3 275.4,726.3 275.4,727.3 276.4,727.3 276.4,728.2 277.4,728.2 277.4,730.1 278.3,730.1 278.3,731.1 279.3,731.1 279.3,732.1 280.2,732.1 280.2,733 281.2,733 281.2,734 282.1,734 282.1,735 283.1,735 283.1,735.9 284,735.9 284,736.9 285,736.9 285,737.9 286,737.9 286,738.8 286.9,738.8 286.9,739.8 287.9,739.8 287.9,740.8 288.8,740.8 288.8,741.7 289.8,741.7 289.8,742.7 290.7,742.7 290.7,743.6 291.7,743.6 291.7,744.6 292.7,744.6 292.7,745.6 293.6,745.6 293.6,746.5 294.6,746.5 294.6,747.5 295.5,747.5 295.5,748.5 296.5,748.5 296.5,749.4 297.4,749.4 297.4,750.4 298.4,750.4 298.4,751.4 299.3,751.4 299.3,753.3 300.3,753.3 300.3,754.3 301.3,754.3 301.3,755.2 302.2,755.2 302.2,756.2 303.2,756.2 303.2,757.2 304.1,757.2 304.1,758.1 305.1,758.1 305.1,759.1 306,759.1 306,760 307,760 307,761 308,761 308,762 308.9,762 308.9,762.9 309.9,762.9 309.9,763.9 310.8,763.9 310.8,764.9 311.8,764.9 311.8,765.8 312.7,765.8 312.7,766.8 313.7,766.8 313.7,767.8 314.6,767.8 314.6,768.7 315.6,768.7 315.6,769.7 316.6,769.7 316.6,770.7 317.5,770.7 317.5,771.6 318.5,771.6 318.5,772.6 319.4,772.6 319.4,773.5 320.4,773.5 320.4,775.5 321.3,775.5 321.3,776.4 322.3,776.4 322.3,777.4 323.3,777.4 323.3,778.4 324.2,778.4 324.2,779.3 325.2,779.3 325.2,780.3 326.1,780.3 326.1,781.3 327.1,781.3 327.1,782.2 328,782.2 328,783.2 329,783.2 329,784.2 330,784.2 330,785.1 330.9,785.1 330.9,786.1 331.9,786.1 331.9,787.1 332.8,787.1 332.8,788 333.8,788 333.8,789 334.7,789 334.7,789.9 335.7,789.9 335.7,790.9 336.6,790.9 336.6,791.9 337.6,791.9 337.6,792.8 338.6,792.8 338.6,793.8 339.5,793.8 339.5,794.8 340.5,794.8 340.5,795.7 341.4,795.7 341.4,797.7 342.4,797.7 342.4,798.6 343.3,798.6 343.3,799.6 344.3,799.6 344.3,800.6 345.3,800.6 345.3,801.5 346.2,801.5 346.2,802.5 347.2,802.5 347.2,803.4 348.1,803.4 348.1,804.4 349.1,804.4 349.1,805.4 350,805.4 350,806.3 351,806.3 351,807.3 351.9,807.3 351.9,808.3 352.9,808.3 352.9,809.2 353.9,809.2 353.9,810.2 354.8,810.2 354.8,811.2 355.8,811.2 355.8,812.1 356.7,812.1 356.7,813.1 357.7,813.1 357.7,814.1 358.6,814.1 358.6,815 359.6,815 359.6,816 360.6,816 360.6,817 361.5,817 361.5,817.9 362.5,817.9 362.5,819.8 363.4,819.8 363.4,820.8 364.4,820.8 364.4,821.8 365.3,821.8 365.3,822.7 366.3,822.7 366.3,823.7 367.3,823.7 367.3,824.7 368.2,824.7 368.2,825.6 369.2,825.6 369.2,826.6 370.1,826.6 370.1,827.6 371.1,827.6 371.1,828.5 372,828.5 372,829.5 373,829.5 373,830.5 373.9,830.5 373.9,831.4 374.9,831.4 374.9,832.4 375.9,832.4 375.9,833.3 376.8,833.3 376.8,834.3 377.8,834.3 377.8,835.3 378.7,835.3 378.7,836.2 379.7,836.2 379.7,837.2 380.6,837.2 380.6,838.2 381.6,838.2 381.6,839.1 382.6,839.1 382.6,840.1 383.5,840.1 383.5,841.1 384.5,841.1 384.5,843 385.4,843 385.4,844 386.4,844 386.4,844.9 387.3,844.9 387.3,845.9 388.3,845.9 388.3,846.9 389.2,846.9 389.2,847.8 390.2,847.8 390.2,848.8 391.2,848.8 391.2,849.7 392.1,849.7 392.1,850.7 393.1,850.7 393.1,851.7 394,851.7 394,852.6 395,852.6 395,853.6 395.9,853.6 395.9,854.6 396.9,854.6 396.9,855.5 397.9,855.5 397.9,856.5 398.8,856.5 398.8,857.5 399.8,857.5 399.8,858.4 400.7,858.4 400.7,859.4 401.7,859.4 401.7,860.4 402.6,860.4 402.6,861.3 403.6,861.3 403.6,862.3 404.5,862.3 404.5,863.2 405.5,863.2 405.5,865.2 406.5,865.2 406.5,866.1 407.4,866.1 407.4,867.1 408.4,867.1 408.4,868.1 409.3,868.1 409.3,869 410.3,869 410.3,870 411.2,870 411.2,871 412.2,871 412.2,871.9 413.2,871.9 413.2,872.9 414.1,872.9 414.1,873.9 415.1,873.9 415.1,874.8 416,874.8 416,875.8 417,875.8 417,876.8 417.9,876.8 417.9,877.7 418.9,877.7 418.9,878.7 419.9,878.7 419.9,879.6 420.8,879.6 420.8,880.6 421.8,880.6 421.8,881.6 422.7,881.6 422.7,882.5 423.7,882.5 423.7,883.5 424.6,883.5 424.6,884.5 425.6,884.5 425.6,885.4 426.5,885.4 426.5,887.4 427.5,887.4 427.5,888.3 428.5,888.3 428.5,889.3 429.4,889.3 429.4,890.3 430.4,890.3 430.4,891.2 431.3,891.2 431.3,892.2 432.3,892.2 432.3,893.1 433.2,893.1 433.2,894.1 434.2,894.1 434.2,895.1 435.2,895.1 435.2,896 436.1,896 436.1,897 437.1,897 437.1,898 438,898 438,898.9 439,898.9 439,899.9 439.9,899.9 439.9,900.9 440.9,900.9 440.9,901.8 441.8,901.8 441.8,902.8 442.8,902.8 442.8,903.8 443.8,903.8 443.8,904.7 444.7,904.7 444.7,905.7 445.7,905.7 445.7,906.7 118.6,906.7 118.6,907.6 117.6,907.6 117.6,909.5 116.7,909.5 116.7,910.5 115.7,910.5 115.7,912.4 114.8,912.4 114.8,913.4 113.8,913.4 113.8,914.4 112.9,914.4 112.9,916.3 111.9,916.3 111.9,917.3 110.9,917.3 110.9,919.2 110,919.2 110,920.2 109,920.2 109,921.1 108.1,921.1 108.1,923 107.1,923 107.1,924 106.2,924 106.2,925.9 105.2,925.9 105.2,926.9 104.2,926.9 104.2,927.9 103.3,927.9 103.3,929.8 102.3,929.8 102.3,930.8 101.4,930.8 101.4,932.7 100.4,932.7 100.4,933.7 99.5,933.7 99.5,934.6 98.5,934.6 98.5,936.6 97.6,936.6 97.6,937.5 96.6,937.5 96.6,939.4 95.6,939.4 95.6,940.4 94.7,940.4 94.7,942.3 93.7,942.3 93.7,943.3 92.8,943.3 92.8,944.3 91.8,944.3 91.8,946.2 90.9,946.2 90.9,947.2 89.9,947.2 89.9,949.1 88.9,949.1 88.9,950.1 88,950.1 88,951 87,951 87,953 86.1,953 86.1,953.9 85.1,953.9 85.1,955.8 84.2,955.8 84.2,956.8 83.2,956.8 83.2,957.8 82.2,957.8 82.2,959.7 81.3,959.7 81.3,960.7 80.3,960.7 80.3,962.6 79.4,962.6 79.4,963.6 78.4,963.6 78.4,964.5 77.5,964.5 77.5,966.5 76.5,966.5 76.5,967.4 75.6,967.4 75.6,969.3 74.6,969.3 74.6,970.3 73.6,970.3 73.6,971.3 72.7,971.3 72.7,973.2 71.7,973.2 71.7,974.2 70.8,974.2 70.8,976.1 69.8,976.1 69.8,977.1 68.9,977.1 68.9,979 67.9,979 67.9,980 66.9,980 66.9,980.9 66,980.9 66,982.8 65,982.8 65,983.8 64.1,983.8 64.1,985.7 63.1,985.7 63.1,986.7 62.2,986.7 62.2,987.7 61.2,987.7 61.2,989.6 60.3,989.6 60.3,990.6 59.3,990.6 59.3,992.5 58.3,992.5 58.3,993.5 57.4,993.5 57.4,994.4 56.4,994.4 56.4,996.4 55.5,996.4 55.5,997.3 54.5,997.3 54.5,999.2 53.6,999.2 53.6,1000.2 52.6,1000.2 52.6,1001.2 51.6,1001.2 51.6,1003.1 50.7,1003.1 50.7,1004.1 49.7,1004.1 49.7,1006 48.8,1006 48.8,1007 47.8,1007 47.8,1007.9 46.9,1007.9 46.9,1009.9 45.9,1009.9 45.9,1010.8 44.9,1010.8 44.9,1012.8 44,1012.8 44,1013.7 43,1013.7 43,1014.7 42.1,1014.7 42.1,1016.6 41.1,1016.6 41.1,1017.6 40.2,1017.6 40.2,1019.5 39.2,1019.5 39.2,1020.5 38.3,1020.5 38.3,1022.4 37.3,1022.4 37.3,1023.4 36.3,1023.4 36.3,1024.3 35.4,1024.3 35.4,1026.3 34.4,1026.3 34.4,1027.2 33.5,1027.2 33.5,1029.1 32.5,1029.1 32.5,1030.1 31.6,1030.1 31.6,1031.1 30.6,1031.1 30.6,1033 29.6,1033 29.6,1034 28.7,1034 28.7,1035.9 27.7,1035.9 27.7,1036.9 26.8,1036.9 26.8,1037.8 25.8,1037.8 25.8,1039.8 24.9,1039.8 24.9,1040.7 23.9,1040.7 23.9,1042.7 23,1042.7 23,1043.6 22,1043.6 22,1044.6 21,1044.6 21,1046.5 20.1,1046.5 20.1,1047.5 19.1,1047.5 19.1,1049.4 18.2,1049.4 18.2,1050.4 17.2,1050.4 17.2,1051.3 16.3,1051.3 16.3,1053.3 15.3,1053.3 15.3,1054.2 14.3,1054.2 14.3,1056.2 13.4,1056.2 13.4,1057.1 12.4,1057.1 12.4,1059 11.5,1059 11.5,1060 10.5,1060 10.5,1061.9 620.7,1061.9 620.7,907.6 619.7,907.6 619.7,906.7 618.8,906.7 618.8,905.7 617.8,905.7 617.8,904.7 616.9,904.7 616.9,903.8 615.9,903.8 615.9,902.8 615,902.8 615,901.8 614,901.8 614,900.9 613,900.9 613,899.9 612.1,899.9 612.1,898.9 611.1,898.9 611.1,898 610.2,898 610.2,897 609.2,897 609.2,896 608.3,896 608.3,894.1 607.3,894.1 607.3,893.1 606.3,893.1 606.3,892.2 605.4,892.2 605.4,891.2 604.4,891.2 604.4,890.3 603.5,890.3 603.5,889.3 602.5,889.3 602.5,888.3 601.6,888.3 601.6,887.4 600.6,887.4 600.6,886.4 599.7,886.4 599.7,885.4 598.7,885.4 598.7,884.5 597.7,884.5 597.7,883.5 596.8,883.5 596.8,882.5 595.8,882.5 595.8,881.6 594.9,881.6 594.9,880.6 593.9,880.6 593.9,879.6 593,879.6 593,878.7 592,878.7 592,877.7 591,877.7 591,876.8 590.1,876.8 590.1,875.8 589.1,875.8 589.1,873.9 588.2,873.9 588.2,872.9 587.2,872.9 587.2,871.9 586.3,871.9 586.3,871 585.3,871 585.3,870 584.3,870 584.3,869 583.4,869 583.4,868.1 582.4,868.1 582.4,867.1 581.5,867.1 581.5,866.1 580.5,866.1 580.5,865.2 579.6,865.2 579.6,864.2 578.6,864.2 578.6,863.2 577.7,863.2 577.7,862.3 576.7,862.3 576.7,861.3 575.7,861.3 575.7,860.4 574.8,860.4 574.8,859.4 573.8,859.4 573.8,858.4 572.9,858.4 572.9,857.5 571.9,857.5 571.9,856.5 571,856.5 571,855.5 570,855.5 570,853.6 569,853.6 569,852.6 568.1,852.6 568.1,851.7 567.1,851.7 567.1,850.7 566.2,850.7 566.2,849.7 565.2,849.7 565.2,848.8 564.3,848.8 564.3,847.8 563.3,847.8 563.3,846.9 562.4,846.9 562.4,845.9 561.4,845.9 561.4,844.9 560.4,844.9 560.4,844 559.5,844 559.5,843 558.5,843 558.5,842 557.6,842 557.6,841.1 556.6,841.1 556.6,840.1 555.7,840.1 555.7,839.1 554.7,839.1 554.7,838.2 553.7,838.2 553.7,837.2 552.8,837.2 552.8,836.2 551.8,836.2 551.8,835.3 550.9,835.3 550.9,833.3 549.9,833.3 549.9,832.4 549,832.4 549,831.4 548,831.4 548,830.5 547,830.5 547,829.5 546.1,829.5 546.1,828.5 545.1,828.5 545.1,827.6 544.2,827.6 544.2,826.6 543.2,826.6 543.2,825.6 542.3,825.6 542.3,824.7 541.3,824.7 541.3,823.7 540.4,823.7 540.4,822.7 539.4,822.7 539.4,821.8 538.4,821.8 538.4,820.8 537.5,820.8 537.5,819.8 536.5,819.8 536.5,818.9 535.6,818.9 535.6,817.9 534.6,817.9 534.6,817 533.7,817 533.7,816 532.7,816 532.7,815 531.7,815 531.7,813.1 530.8,813.1 530.8,812.1 529.8,812.1 529.8,811.2 528.9,811.2 528.9,810.2 527.9,810.2 527.9,809.2 527,809.2 527,808.3 526,808.3 526,807.3 525.1,807.3 525.1,806.3 524.1,806.3 524.1,805.4 523.1,805.4 523.1,804.4 522.2,804.4 522.2,803.4 521.2,803.4 521.2,802.5 520.3,802.5 520.3,801.5 519.3,801.5 519.3,800.6 518.4,800.6 518.4,799.6 517.4,799.6 517.4,798.6 516.4,798.6 516.4,797.7 515.5,797.7 515.5,796.7 514.5,796.7 514.5,795.7 513.6,795.7 513.6,794.8 512.6,794.8 512.6,792.8 511.7,792.8 511.7,791.9 510.7,791.9 510.7,790.9 509.8,790.9 509.8,789.9 508.8,789.9 508.8,789 507.8,789 507.8,788 506.9,788 506.9,787.1 505.9,787.1 505.9,786.1 505,786.1 505,785.1 504,785.1 504,784.2 503.1,784.2 503.1,783.2 502.1,783.2 502.1,782.2 501.1,782.2 501.1,781.3 500.2,781.3 500.2,780.3 499.2,780.3 499.2,779.3 498.3,779.3 498.3,778.4 497.3,778.4 497.3,777.4 496.4,777.4 496.4,776.4 495.4,776.4 495.4,775.5 494.4,775.5 494.4,774.5 493.5,774.5 493.5,773.5 492.5,773.5 492.5,771.6 491.6,771.6 491.6,770.7 490.6,770.7 490.6,769.7 489.7,769.7 489.7,768.7 488.7,768.7 488.7,767.8 487.8,767.8 487.8,766.8 486.8,766.8 486.8,765.8 485.8,765.8 485.8,764.9 484.9,764.9 484.9,763.9 483.9,763.9 483.9,762.9 483,762.9 483,762 482,762 482,761 481.1,761 481.1,760 480.1,760 480.1,759.1 479.1,759.1 479.1,758.1 478.2,758.1 478.2,757.2 477.2,757.2 477.2,756.2 476.3,756.2 476.3,755.2 475.3,755.2 475.3,754.3 474.4,754.3 474.4,752.3 473.4,752.3 473.4,751.4 472.5,751.4 472.5,750.4 471.5,750.4 471.5,749.4 470.5,749.4 470.5,748.5 469.6,748.5 469.6,747.5 468.6,747.5 468.6,746.5 467.7,746.5 467.7,745.6 466.7,745.6 466.7,744.6 465.8,744.6 465.8,743.6 464.8,743.6 464.8,742.7 463.8,742.7 463.8,741.7 462.9,741.7 462.9,740.8 461.9,740.8 461.9,739.8 461,739.8 461,738.8 460,738.8 460,737.9 459.1,737.9 459.1,736.9 458.1,736.9 458.1,735.9 457.1,735.9 457.1,735 456.2,735 456.2,734 455.2,734 455.2,732.1 454.3,732.1 454.3,731.1 453.3,731.1 453.3,730.1 452.4,730.1 452.4,729.2 451.4,729.2 451.4,728.2 450.5,728.2 450.5,727.3 449.5,727.3 449.5,726.3 448.5,726.3 448.5,725.3 447.6,725.3 447.6,724.4 446.6,724.4 446.6,723.4 445.7,723.4 445.7,722.4 444.7,722.4 444.7,721.5 443.8,721.5 443.8,720.5 442.8,720.5 442.8,719.5 441.8,719.5 441.8,718.6 440.9,718.6 440.9,717.6 439.9,717.6 439.9,716.6 439,716.6 439,715.7 438,715.7 438,714.7 437.1,714.7 437.1,713.7 436.1,713.7 436.1,712.8 435.2,712.8 435.2,710.9 434.2,710.9 434.2,709.9 433.2,709.9 433.2,708.9 432.3,708.9 432.3,708 431.3,708 431.3,707 430.4,707 430.4,706 429.4,706 429.4,705.1 428.5,705.1 428.5,704.1 427.5,704.1 427.5,703.1 426.5,703.1 426.5,702.2 425.6,702.2 425.6,701.2 424.6,701.2 424.6,700.2 423.7,700.2 423.7,699.3 422.7,699.3 422.7,698.3 421.8,698.3 421.8,697.4 420.8,697.4 420.8,696.4 419.9,696.4 419.9,695.4 418.9,695.4 418.9,694.5 417.9,694.5 417.9,693.5 417,693.5 417,692.5 416,692.5 416,690.6 415.1,690.6 415.1,689.6 414.1,689.6 414.1,688.7 413.2,688.7 413.2,687.7 412.2,687.7 412.2,686.7 411.2,686.7 411.2,685.8 410.3,685.8 410.3,684.8 409.3,684.8 409.3,683.8 408.4,683.8 408.4,682.9 407.4,682.9 407.4,681.9 406.5,681.9 406.5,681 405.5,681 405.5,680 404.5,680 404.5,679 403.6,679 403.6,678.1 402.6,678.1 402.6,677.1 401.7,677.1 401.7,676.1 400.7,676.1 400.7,675.2 399.8,675.2 399.8,674.2 398.8,674.2 398.8,673.2 397.9,673.2 397.9,672.3 396.9,672.3 396.9,670.3 395.9,670.3 395.9,669.4 395,669.4 395,668.4 394,668.4 394,667.5 393.1,667.5 393.1,666.5 392.1,666.5 392.1,665.5 391.2,665.5 391.2,664.6 390.2,664.6 390.2,663.6 389.2,663.6 389.2,662.6 388.3,662.6 388.3,661.7 387.3,661.7 387.3,660.7 386.4,660.7 386.4,659.7 385.4,659.7 385.4,658.8 384.5,658.8 384.5,657.8 383.5,657.8 383.5,656.8 382.6,656.8 382.6,655.9 381.6,655.9 381.6,654.9 380.6,654.9 380.6,653.9 379.7,653.9 379.7,653 378.7,653 378.7,651.1 377.8,651.1 377.8,650.1 376.8,650.1 376.8,649.1 375.9,649.1 375.9,648.2 374.9,648.2 374.9,647.2 373.9,647.2 373.9,646.2 373,646.2 373,645.3 372,645.3 372,644.3 371.1,644.3 371.1,643.3 370.1,643.3 370.1,642.4 369.2,642.4 369.2,641.4 368.2,641.4 368.2,640.4 367.3,640.4 367.3,639.5 366.3,639.5 366.3,638.5 365.3,638.5 365.3,637.5 364.4,637.5 364.4,636.6 363.4,636.6 363.4,635.6 362.5,635.6 362.5,634.7 361.5,634.7 361.5,633.7 360.6,633.7 360.6,632.7 359.6,632.7 359.6,631.8 358.6,631.8 358.6,629.8 357.7,629.8 357.7,628.9 356.7,628.9 356.7,627.9 355.8,627.9 355.8,626.9 354.8,626.9 354.8,626 353.9,626 353.9,625 352.9,625 352.9,624 351.9,624 351.9,623.1 351,623.1 351,622.1 350,622.1 350,621.2 349.1,621.2 349.1,620.2 348.1,620.2 348.1,619.2 347.2,619.2 347.2,618.3 346.2,618.3 346.2,617.3 345.3,617.3 345.3,616.3 344.3,616.3 344.3,615.4 343.3,615.4 343.3,614.4 342.4,614.4 342.4,613.4 341.4,613.4 341.4,612.5 340.5,612.5 340.5,611.5 339.5,611.5 339.5,609.6 338.6,609.6 338.6,608.6 337.6,608.6 337.6,607.7 336.6,607.7 336.6,606.7 335.7,606.7 335.7,605.7 334.7,605.7 334.7,604.8 333.8,604.8 333.8,603.8 332.8,603.8 332.8,602.8 331.9,602.8 331.9,601.9 330.9,601.9 330.9,600.9 330,600.9 330,599.9 329,599.9 329,599 328,599 328,598 327.1,598 327.1,597 326.1,597 326.1,596.1 325.2,596.1 325.2,595.1 324.2,595.1 324.2,594.1 323.3,594.1 323.3,593.2 322.3,593.2 322.3,592.2 321.3,592.2 321.3,591.3 320.4,591.3 320.4,589.3 319.4,589.3 319.4,588.4 318.5,588.4 318.5,587.4 317.5,587.4 317.5,586.4 316.6,586.4 316.6,585.5 315.6,585.5 315.6,584.5 314.6,584.5 314.6,583.5 313.7,583.5 313.7,582.6 312.7,582.6 312.7,581.6 311.8,581.6 311.8,580.6 310.8,580.6 310.8,579.7 309.9,579.7 309.9,578.7 308.9,578.7 308.9,577.7 308,577.7 308,576.8 307,576.8 307,575.8 306,575.8 306,574.9 305.1,574.9 305.1,573.9 304.1,573.9 304.1,572.9 303.2,572.9 303.2,572 302.2,572 302.2,571 301.3,571 301.3,569.1 300.3,569.1 300.3,568.1 299.3,568.1 299.3,567.1 298.4,567.1 298.4,566.2 297.4,566.2 297.4,565.2 296.5,565.2 296.5,564.2 295.5,564.2 295.5,563.3 294.6,563.3 294.6,562.3 293.6,562.3 293.6,561.4 292.7,561.4 292.7,560.4 291.7,560.4 291.7,559.4 290.7,559.4 290.7,558.5 289.8,558.5 289.8,557.5 288.8,557.5 288.8,556.5 287.9,556.5 287.9,555.6 286.9,555.6 286.9,554.6 286,554.6 286,553.6 285,553.6 285,552.7 284,552.7 284,551.7 283.1,551.7 283.1,549.8 282.1,549.8 282.1,548.8 281.2,548.8 281.2,547.8 280.2,547.8 280.2,546.9 279.3,546.9 279.3,545.9 278.3,545.9 278.3,545 277.4,545 277.4,544 276.4,544 276.4,543 275.4,543 275.4,542.1 274.5,542.1 274.5,541.1 273.5,541.1 273.5,540.1 272.6,540.1 272.6,539.2 271.6,539.2 271.6,538.2 270.7,538.2 270.7,537.2 269.7,537.2 269.7,536.3 268.7,536.3 268.7,535.3 267.8,535.3 267.8,534.3 266.8,534.3 266.8,533.4 265.9,533.4 265.9,532.4 264.9,532.4 264.9,531.5 264,531.5 264,530.5 263,530.5 263,528.6 262,528.6 262,527.6 261.1,527.6 261.1,526.6 260.1,526.6 260.1,525.7 259.2,525.7 259.2,524.7 258.2,524.7 258.2,523.7 257.3,523.7 257.3,522.8 256.3,522.8 256.3,521.8 255.4,521.8 255.4,520.8 254.4,520.8 254.4,519.9 253.4,519.9 253.4,518.9 252.5,518.9 252.5,517.9 251.5,517.9 251.5,517 250.6,517 250.6,516 249.6,516 249.6,515.1 248.7,515.1 248.7,514.1 247.7,514.1 247.7,513.1 246.7,513.1 246.7,512.2 245.8,512.2 245.8,511.2 244.8,511.2 244.8,510.2 243.9,510.2 243.9,508.3 242.9,508.3 242.9,507.3 242,507.3 242,506.4 241,506.4 241,505.4 240.1,505.4 240.1,504.4 239.1,504.4 239.1,503.5 238.1,503.5 238.1,502.5 237.2,502.5 237.2,501.6 236.2,501.6 236.2,500.6 235.3,500.6 235.3,499.6 234.3,499.6 234.3,498.7 233.4,498.7 233.4,497.7 232.4,497.7 232.4,496.7 231.4,496.7 231.4,495.8 230.5,495.8 230.5,494.8 229.5,494.8 229.5,493.8 228.6,493.8 228.6,492.9 227.6,492.9 227.6,491.9 226.7,491.9 226.7,490.9 225.7,490.9 225.7,490 224.7,490 224.7,488 223.8,488 223.8,487.1 222.8,487.1 222.8,486.1 221.9,486.1 221.9,485.2 220.9,485.2 220.9,484.2 220,484.2 220,483.2 219,483.2 219,482.3 218.1,482.3 218.1,481.3 217.1,481.3 217.1,480.3 216.1,480.3 216.1,479.4 215.2,479.4 215.2,478.4 214.2,478.4 214.2,477.4 213.3,477.4 213.3,476.5 212.3,476.5 212.3,475.5 211.4,475.5 211.4,474.5 210.4,474.5 210.4,473.6 209.4,473.6 209.4,472.6 208.5,472.6 208.5,471.7 207.5,471.7 207.5,470.7 206.6,470.7 206.6,469.7 205.6,469.7 205.6,468.8 204.7,468.8 204.7,466.8 203.7,466.8 203.7,465.9 202.8,465.9 202.8,464.9 201.8,464.9 201.8,463.9 200.8,463.9 200.8,463 199.9,463 199.9,462 198.9,462 198.9,461 198,461 198,460.1 197,460.1 197,459.1 196.1,459.1 196.1,458.1 195.1,458.1 195.1,457.2 194.1,457.2 194.1,456.2 193.2,456.2 193.2,455.3 192.2,455.3 192.2,454.3 191.3,454.3 191.3,453.3 190.3,453.3 190.3,452.4 189.4,452.4 189.4,451.4 188.4,451.4 188.4,450.4 187.4,450.4 187.4,449.5 186.5,449.5 186.5,447.5 185.5,447.5 185.5,446.6 184.6,446.6 184.6,445.6 183.6,445.6 183.6,444.6 182.7,444.6 182.7,443.7 181.7,443.7 181.7,442.7 180.8,442.7 180.8,441.8 179.8,441.8 179.8,440.8 178.8,440.8 178.8,439.8 177.9,439.8 177.9,438.9 176.9,438.9 176.9,437.9 176,437.9 176,436.9 175,436.9 175,436 174.1,436 174.1,435 173.1,435 173.1,434 172.1,434 172.1,433.1 171.2,433.1 171.2,432.1 170.2,432.1 170.2,431.1 169.3,431.1 169.3,430.2 168.3,430.2 168.3,429.2 167.4,429.2 167.4,427.3 166.4,427.3 166.4,426.3 165.5,426.3 165.5,425.4 164.5,425.4 164.5,424.4 163.5,424.4 163.5,423.4 162.6,423.4 162.6,422.5 161.6,422.5 161.6,421.5 160.7,421.5 160.7,420.5 159.7,420.5 159.7,419.6 158.8,419.6 158.8,418.6 157.8,418.6 157.8,417.6 156.8,417.6 156.8,416.7 155.9,416.7 155.9,415.7 154.9,415.7 154.9,414.7 154,414.7 154,413.8 153,413.8 153,412.8 152.1,412.8 152.1,411.9 151.1,411.9 151.1,410.9 150.2,410.9 150.2,409.9 149.2,409.9 149.2,409 148.2,409 148.2,407 147.3,407 147.3,406.1 146.3,406.1 146.3,405.1 145.4,405.1 145.4,404.1 144.4,404.1 144.4,403.2 143.5,403.2 143.5,402.2 142.5,402.2 142.5,401.2 141.5,401.2 141.5,400.3 140.6,400.3 140.6,399.3 139.6,399.3 139.6,398.3 138.7,398.3 138.7,397.4 137.7,397.4 137.7,396.4 136.8,396.4 136.8,395.5 135.8,395.5 135.8,394.5 134.8,394.5 134.8,393.5 133.9,393.5 133.9,392.6 132.9,392.6 132.9,363.6 133.9,363.6 133.9,354.9 134.8,354.9 134.8,341.4 135.8,341.4 135.8,333.7 136.8,333.7 136.8,329.9 137.7,329.9 137.7,323.1 138.7,323.1 138.7,319.3 139.6,319.3 139.6,313.5 140.6,313.5 140.6,309.6 141.5,309.6 141.5,304.8 142.5,304.8 142.5,300.9 143.5,300.9 143.5,297.1 144.4,297.1 144.4,295.1 145.4,295.1 145.4,291.3 146.3,291.3 146.3,287.4 147.3,287.4 147.3,284.5 148.2,284.5 148.2,281.6 149.2,281.6 149.2,278.7 150.2,278.7 150.2,276.8 151.1,276.8 151.1,273.9 152.1,273.9 152.1,271 153,271 153,269.1 154,269.1 154,266.2 154.9,266.2 154.9,264.3 155.9,264.3 155.9,262.4 156.8,262.4 156.8,259.5 157.8,259.5 157.8,257.5 158.8,257.5 158.8,255.6 159.7,255.6 159.7,253.7 160.7,253.7 160.7,251.7 161.6,251.7 161.6,249.8 162.6,249.8 162.6,247.9 163.5,247.9 163.5,246 164.5,246 164.5,244 165.5,244 165.5,242.1 166.4,242.1 166.4,240.2 167.4,240.2 167.4,239.2 168.3,239.2 168.3,237.3 169.3,237.3 169.3,235.3 170.2,235.3 170.2,233.4 171.2,233.4 171.2,232.5 172.1,232.5 172.1,230.5 173.1,230.5 173.1,229.6 174.1,229.6 174.1,227.6 175,227.6 175,226.7 176,226.7 176,224.7 176.9,224.7 176.9,223.8 177.9,223.8 177.9,221.8 178.8,221.8 178.8,220.9 179.8,220.9 179.8,218.9 180.8,218.9 180.8,218 181.7,218 181.7,217 182.7,217 182.7,215.1 183.6,215.1 183.6,214.1 184.6,214.1 184.6,213.2 185.5,213.2 185.5,211.2 186.5,211.2 186.5,210.3 187.4,210.3 187.4,209.3 188.4,209.3 188.4,208.3 189.4,208.3 189.4,206.4 190.3,206.4 190.3,205.4 191.3,205.4 191.3,204.5 192.2,204.5 192.2,203.5 193.2,203.5 193.2,202.5 194.1,202.5 194.1,200.6 195.1,200.6 195.1,199.7 196.1,199.7 196.1,198.7 197,198.7 197,197.7 198,197.7 198,196.8 198.9,196.8 198.9,195.8 199.9,195.8 199.9,194.8 200.8,194.8 200.8,193.9 201.8,193.9 201.8,192.9 202.8,192.9 202.8,191.9 203.7,191.9 203.7,191 204.7,191 204.7,190 205.6,190 205.6,189 206.6,189 206.6,188.1 207.5,188.1 207.5,187.1 208.5,187.1 208.5,186.2 209.4,186.2 209.4,185.2 210.4,185.2 210.4,184.2 211.4,184.2 211.4,183.3 212.3,183.3 212.3,182.3 214.2,182.3 214.2,181.3 215.2,181.3 215.2,180.4 216.1,180.4 216.1,179.4 217.1,179.4 217.1,178.4 218.1,178.4 218.1,177.5 219,177.5 219,176.5 220.9,176.5 220.9,175.5 221.9,175.5 221.9,174.6 222.8,174.6 222.8,173.6 223.8,173.6 223.8,172.6 225.7,172.6 225.7,171.7 226.7,171.7 226.7,170.7 227.6,170.7 227.6,169.8 229.5,169.8 229.5,168.8 230.5,168.8 230.5,167.8 231.4,167.8 231.4,166.9 233.4,166.9 233.4,165.9 234.3,165.9 234.3,164.9 236.2,164.9 236.2,164 237.2,164 237.2,163 239.1,163 239.1,162 240.1,162 240.1,161.1 242,161.1 242,160.1 242.9,160.1 242.9,159.1 244.8,159.1 244.8,158.2 245.8,158.2 245.8,157.2 247.7,157.2 247.7,156.3 249.6,156.3 249.6,155.3 251.5,155.3 251.5,154.3 252.5,154.3 252.5,153.4 254.4,153.4 254.4,152.4 256.3,152.4 256.3,151.4 258.2,151.4 258.2,150.5 260.1,150.5 260.1,149.5 261.1,149.5 261.1,148.5 263,148.5 263,147.6 264.9,147.6 264.9,146.6 267.8,146.6 267.8,145.6 269.7,145.6 269.7,144.7 271.6,144.7 271.6,143.7 273.5,143.7 273.5,142.7 275.4,142.7 275.4,141.8 278.3,141.8 278.3,140.8 280.2,140.8 280.2,139.9 282.1,139.9 282.1,138.9 285,138.9 285,137.9 286.9,137.9 286.9,137 289.8,137 289.8,136 292.7,136 292.7,135 295.5,135 295.5,134.1 298.4,134.1 298.4,133.1 300.3,133.1 300.3,132.1 305.1,132.1 305.1,131.2 308,131.2 308,130.2 311.8,130.2 311.8,129.2 315.6,129.2 315.6,128.3 318.5,128.3 318.5,127.3 322.3,127.3 322.3,126.4 327.1,126.4 327.1,125.4 377.8,125.4 377.8,124.4 529.8,124.4 529.8,123.5 573.8,123.5 573.8,199.7 574.8,199.7 574.8,310.6 575.7,310.6 575.7,492.9 574.8,492.9 574.8,498.7 573.8,498.7 573.8,501.6 572.9,501.6 572.9,505.4 571.9,505.4 571.9,508.3 571,508.3 571,510.2 570,510.2 570,512.2 569,512.2 569,514.1 568.1,514.1 568.1,515.1 567.1,515.1 567.1,516 566.2,516 566.2,517 565.2,517 565.2,517.9 564.3,517.9 564.3,518.9 562.4,518.9 562.4,519.9 560.4,519.9 560.4,520.8 558.5,520.8 558.5,521.8 550.9,521.8 550.9,520.8 547,520.8 547,519.9 545.1,519.9 545.1,518.9 542.3,518.9 542.3,517.9 540.4,517.9 540.4,517 539.4,517 539.4,516 537.5,516 537.5,515.1 535.6,515.1 535.6,514.1 534.6,514.1 534.6,513.1 533.7,513.1 533.7,512.2 531.7,512.2 531.7,511.2 530.8,511.2 530.8,510.2 529.8,510.2 529.8,509.3 528.9,509.3 528.9,508.3 527,508.3 527,507.3 526,507.3 526,506.4 525.1,506.4 525.1,505.4 524.1,505.4 524.1,504.4 523.1,504.4 523.1,503.5 522.2,503.5 522.2,502.5 521.2,502.5 521.2,501.6 520.3,501.6 520.3,500.6 519.3,500.6 519.3,499.6 518.4,499.6 518.4,498.7 517.4,498.7 517.4,497.7 516.4,497.7 516.4,496.7 515.5,496.7 515.5,495.8 514.5,495.8 514.5,494.8 513.6,494.8 513.6,493.8 512.6,493.8 512.6,492.9 511.7,492.9 511.7,491.9 510.7,491.9 510.7,490.9 509.8,490.9 509.8,490 508.8,490 508.8,489 507.8,489 507.8,488 506.9,488 506.9,487.1 505.9,487.1 505.9,486.1 505,486.1 505,485.2 504,485.2 504,484.2 503.1,484.2 503.1,483.2 502.1,483.2 502.1,482.3 501.1,482.3 501.1,481.3 500.2,481.3 500.2,480.3 499.2,480.3 499.2,479.4 498.3,479.4 498.3,478.4 497.3,478.4 497.3,477.4 496.4,477.4 496.4,476.5 495.4,476.5 495.4,475.5 494.4,475.5 494.4,474.5 493.5,474.5 493.5,473.6 492.5,473.6 492.5,472.6 491.6,472.6 491.6,471.7 490.6,471.7 490.6,470.7 489.7,470.7 489.7,469.7 488.7,469.7 488.7,468.8 487.8,468.8 487.8,467.8 486.8,467.8 486.8,466.8 485.8,466.8 485.8,465.9 484.9,465.9 484.9,464.9 483.9,464.9 483.9,463.9 483,463.9 483,463 482,463 482,462 481.1,462 481.1,461 480.1,461 480.1,460.1 479.1,460.1 479.1,459.1 478.2,459.1 478.2,458.1 477.2,458.1 477.2,457.2 476.3,457.2 476.3,456.2 475.3,456.2 475.3,455.3 474.4,455.3 474.4,454.3 473.4,454.3 473.4,453.3 472.5,453.3 472.5,452.4 471.5,452.4 471.5,451.4 470.5,451.4 470.5,450.4 469.6,450.4 469.6,449.5 468.6,449.5 468.6,448.5 467.7,448.5 467.7,447.5 466.7,447.5 466.7,446.6 465.8,446.6 465.8,445.6 464.8,445.6 464.8,444.6 463.8,444.6 463.8,443.7 462.9,443.7 462.9,442.7 461.9,442.7 461.9,441.8 461,441.8 461,440.8 460,440.8 460,439.8 459.1,439.8 459.1,438.9 458.1,438.9 458.1,437.9 457.1,437.9 457.1,436.9 456.2,436.9 456.2,436 455.2,436 455.2,435 454.3,435 454.3,434 453.3,434 453.3,433.1 452.4,433.1 452.4,432.1 451.4,432.1 451.4,431.1 450.5,431.1 450.5,430.2 449.5,430.2 449.5,429.2 448.5,429.2 448.5,428.2 447.6,428.2 447.6,427.3 446.6,427.3 446.6,426.3 445.7,426.3 445.7,425.4 444.7,425.4 444.7,424.4 443.8,424.4 443.8,423.4 442.8,423.4 442.8,422.5 441.8,422.5 441.8,421.5 440.9,421.5 440.9,420.5 439.9,420.5 439.9,419.6 439,419.6 439,418.6 438,418.6 438,417.6 437.1,417.6 437.1,416.7 436.1,416.7 436.1,415.7 435.2,415.7 435.2,414.7 434.2,414.7 434.2,413.8 433.2,413.8 433.2,412.8 432.3,412.8 432.3,411.9 431.3,411.9 431.3,410.9 430.4,410.9 430.4,409.9 429.4,409.9 429.4,409 428.5,409 428.5,408 427.5,408 427.5,407 426.5,407 426.5,406.1 425.6,406.1 425.6,405.1 424.6,405.1 424.6,404.1 423.7,404.1 423.7,403.2 422.7,403.2 422.7,402.2 421.8,402.2 421.8,401.2 420.8,401.2 420.8,400.3 419.9,400.3 419.9,399.3 418.9,399.3 418.9,398.3 417.9,398.3 417.9,397.4 417,397.4 417,396.4 416,396.4 416,395.5 415.1,395.5 415.1,394.5 414.1,394.5 414.1,393.5 413.2,393.5 413.2,392.6 412.2,392.6 412.2,391.6 411.2,391.6 411.2,390.6 410.3,390.6 410.3,389.7 409.3,389.7 409.3,388.7 408.4,388.7 408.4,387.7 407.4,387.7 407.4,386.8 406.5,386.8 406.5,385.8 252.5,385.8 252.5,387.7 253.4,387.7 253.4,388.7 254.4,388.7 254.4,389.7 255.4,389.7 255.4,390.6 256.3,390.6 256.3,391.6 257.3,391.6 257.3,392.6 258.2,392.6 258.2,393.5 259.2,393.5 259.2,395.5 260.1,395.5 260.1,396.4 261.1,396.4 261.1,397.4 262,397.4 262,398.3 263,398.3 263,399.3 264,399.3 264,400.3 264.9,400.3 264.9,401.2 265.9,401.2 265.9,402.2 266.8,402.2 266.8,403.2 267.8,403.2 267.8,404.1 268.7,404.1 268.7,406.1 269.7,406.1 269.7,407 270.7,407 270.7,408 271.6,408 271.6,409 272.6,409 272.6,409.9 273.5,409.9 273.5,410.9 274.5,410.9 274.5,411.9 275.4,411.9 275.4,412.8 276.4,412.8 276.4,413.8 277.4,413.8 277.4,415.7 278.3,415.7 278.3,416.7 279.3,416.7 279.3,417.6 280.2,417.6 280.2,418.6 281.2,418.6 281.2,419.6 282.1,419.6 282.1,420.5 283.1,420.5 283.1,421.5 284,421.5 284,422.5 285,422.5 285,423.4 286,423.4 286,424.4 286.9,424.4 286.9,426.3 287.9,426.3 287.9,427.3 288.8,427.3 288.8,428.2 289.8,428.2 289.8,429.2 290.7,429.2 290.7,430.2 291.7,430.2 291.7,431.1 292.7,431.1 292.7,432.1 293.6,432.1 293.6,433.1 294.6,433.1 294.6,434 295.5,434 295.5,436 296.5,436 296.5,436.9 297.4,436.9 297.4,437.9 298.4,437.9 298.4,438.9 299.3,438.9 299.3,439.8 300.3,439.8 300.3,440.8 301.3,440.8 301.3,441.8 302.2,441.8 302.2,442.7 303.2,442.7 303.2,443.7 304.1,443.7 304.1,444.6 305.1,444.6 305.1,446.6 306,446.6 306,447.5 307,447.5 307,448.5 308,448.5 308,449.5 308.9,449.5 308.9,450.4 309.9,450.4 309.9,451.4 310.8,451.4 310.8,452.4 311.8,452.4 311.8,453.3 312.7,453.3 312.7,454.3 313.7,454.3 313.7,456.2 314.6,456.2 314.6,457.2 315.6,457.2 315.6,458.1 316.6,458.1 316.6,459.1 317.5,459.1 317.5,460.1 318.5,460.1 318.5,461 319.4,461 319.4,462 320.4,462 320.4,463 321.3,463 321.3,463.9 322.3,463.9 322.3,464.9 323.3,464.9 323.3,466.8 324.2,466.8 324.2,467.8 325.2,467.8 325.2,468.8 326.1,468.8 326.1,469.7 327.1,469.7 327.1,470.7 328,470.7 328,471.7 329,471.7 329,472.6 330,472.6 330,473.6 330.9,473.6 330.9,474.5 331.9,474.5 331.9,476.5 332.8,476.5 332.8,477.4 333.8,477.4 333.8,478.4 334.7,478.4 334.7,479.4 335.7,479.4 335.7,480.3 336.6,480.3 336.6,481.3 337.6,481.3 337.6,482.3 338.6,482.3 338.6,483.2 339.5,483.2 339.5,484.2 340.5,484.2 340.5,485.2 341.4,485.2 341.4,487.1 342.4,487.1 342.4,488 343.3,488 343.3,489 344.3,489 344.3,490 345.3,490 345.3,490.9 346.2,490.9 346.2,491.9 347.2,491.9 347.2,492.9 348.1,492.9 348.1,493.8 349.1,493.8 349.1,494.8 350,494.8 350,495.8 351,495.8 351,497.7 351.9,497.7 351.9,498.7 352.9,498.7 352.9,499.6 353.9,499.6 353.9,500.6 354.8,500.6 354.8,501.6 355.8,501.6 355.8,502.5 356.7,502.5 356.7,503.5 357.7,503.5 357.7,504.4 358.6,504.4 358.6,505.4 359.6,505.4 359.6,507.3 360.6,507.3 360.6,508.3 361.5,508.3 361.5,509.3 362.5,509.3 362.5,510.2 363.4,510.2 363.4,511.2 364.4,511.2 364.4,512.2 365.3,512.2 365.3,513.1 366.3,513.1 366.3,514.1 367.3,514.1 367.3,515.1 368.2,515.1 368.2,516 369.2,516 369.2,517.9 370.1,517.9 370.1,518.9 371.1,518.9 371.1,519.9 372,519.9 372,520.8 373,520.8 373,521.8 373.9,521.8 373.9,522.8 374.9,522.8 374.9,523.7 375.9,523.7 375.9,524.7 376.8,524.7 376.8,525.7 377.8,525.7 377.8,527.6 378.7,527.6 378.7,528.6 379.7,528.6 379.7,529.5 380.6,529.5 380.6,530.5 381.6,530.5 381.6,531.5 382.6,531.5 382.6,532.4 383.5,532.4 383.5,533.4 384.5,533.4 384.5,534.3 385.4,534.3 385.4,535.3 386.4,535.3 386.4,536.3 387.3,536.3 387.3,538.2 388.3,538.2 388.3,539.2 389.2,539.2 389.2,540.1 390.2,540.1 390.2,541.1 391.2,541.1 391.2,542.1 392.1,542.1 392.1,543 393.1,543 393.1,544 394,544 394,545 395,545 395,545.9 395.9,545.9 395.9,547.8 396.9,547.8 396.9,548.8 397.9,548.8 397.9,549.8 398.8,549.8 398.8,550.7 399.8,550.7 399.8,551.7 400.7,551.7 400.7,552.7 401.7,552.7 401.7,553.6 402.6,553.6 402.6,554.6 403.6,554.6 403.6,555.6 404.5,555.6 404.5,556.5 405.5,556.5 405.5,558.5 406.5,558.5 406.5,559.4 407.4,559.4 407.4,560.4 408.4,560.4 408.4,561.4 409.3,561.4 409.3,562.3 410.3,562.3 410.3,563.3 411.2,563.3 411.2,564.2 412.2,564.2 412.2,565.2 413.2,565.2 413.2,566.2 414.1,566.2 414.1,568.1 415.1,568.1 415.1,569.1 416,569.1 416,570 417,570 417,571 417.9,571 417.9,572 418.9,572 418.9,572.9 419.9,572.9 419.9,573.9 420.8,573.9 420.8,574.9 421.8,574.9 421.8,575.8 422.7,575.8 422.7,576.8 423.7,576.8 423.7,578.7 424.6,578.7 424.6,579.7 425.6,579.7 425.6,580.6 426.5,580.6 426.5,581.6 427.5,581.6 427.5,582.6 428.5,582.6 428.5,583.5 429.4,583.5 429.4,584.5 430.4,584.5 430.4,585.5 431.3,585.5 431.3,586.4 432.3,586.4 432.3,588.4 433.2,588.4 433.2,589.3 434.2,589.3 434.2,590.3 435.2,590.3 435.2,591.3 436.1,591.3 436.1,592.2 437.1,592.2 437.1,593.2 438,593.2 438,594.1 439,594.1 439,595.1 439.9,595.1 439.9,596.1 440.9,596.1 440.9,597 441.8,597 441.8,599 442.8,599 442.8,599.9 443.8,599.9 443.8,600.9 444.7,600.9 444.7,601.9 445.7,601.9 445.7,602.8 446.6,602.8 446.6,603.8 447.6,603.8 447.6,604.8 448.5,604.8 448.5,605.7 449.5,605.7 449.5,606.7 450.5,606.7 450.5,608.6 451.4,608.6 451.4,609.6 452.4,609.6 452.4,610.5 453.3,610.5 453.3,611.5 454.3,611.5 454.3,612.5 455.2,612.5 455.2,613.4 456.2,613.4 456.2,614.4 457.1,614.4 457.1,615.4 458.1,615.4 458.1,616.3 459.1,616.3 459.1,617.3 460,617.3 460,619.2 461,619.2 461,620.2 461.9,620.2 461.9,621.2 462.9,621.2 462.9,622.1 463.8,622.1 463.8,623.1 464.8,623.1 464.8,624 465.8,624 465.8,625 466.7,625 466.7,626 467.7,626 467.7,626.9 468.6,626.9 468.6,627.9 469.6,627.9 469.6,629.8 470.5,629.8 470.5,630.8 471.5,630.8 471.5,631.8 472.5,631.8 472.5,632.7 473.4,632.7 473.4,633.7 474.4,633.7 474.4,634.7 475.3,634.7 475.3,635.6 476.3,635.6 476.3,636.6 477.2,636.6 477.2,637.5 478.2,637.5 478.2,639.5 479.1,639.5 479.1,640.4 480.1,640.4 480.1,641.4 481.1,641.4 481.1,642.4 482,642.4 482,643.3 483,643.3 483,644.3 483.9,644.3 483.9,645.3 484.9,645.3 484.9,646.2 697.2,646.2 697.2,172.6 695.3,172.6 695.3,171.7 694.3,171.7 694.3,170.7 692.4,170.7 692.4,169.8 690.5,169.8 690.5,168.8 689.6,168.8 689.6,167.8 687.6,167.8 687.6,166.9 685.7,166.9 685.7,165.9 684.8,165.9 684.8,164.9 682.9,164.9 682.9,164 680.9,164 680.9,163 680,163 680,162 678.1,162 678.1,161.1 677.1,161.1 677.1,160.1 675.2,160.1 675.2,159.1 673.3,159.1 673.3,158.2 672.3,158.2 672.3,157.2 670.4,157.2 670.4,156.3 668.5,156.3 668.5,155.3 667.6,155.3 667.6,154.3 665.6,154.3 665.6,153.4 663.7,153.4 663.7,152.4 662.8,152.4 662.8,151.4 660.9,151.4 660.9,150.5 658.9,150.5 658.9,149.5 658,149.5 658,148.5 656.1,148.5 656.1,147.6 654.2,147.6 654.2,146.6 653.2,146.6 653.2,145.6 651.3,145.6 651.3,144.7 649.4,144.7 649.4,143.7 648.4,143.7 648.4,142.7 646.5,142.7 646.5,141.8 645.6,141.8 645.6,140.8 643.6,140.8 643.6,139.9 641.7,139.9 641.7,138.9 640.8,138.9 640.8,137.9 638.9,137.9 638.9,137 636.9,137 636.9,136 636,136 636,135 634.1,135 634.1,134.1 632.2,134.1 632.2,133.1 631.2,133.1 631.2,132.1 629.3,132.1 629.3,131.2 627.4,131.2 627.4,130.2 626.4,130.2 626.4,129.2 624.5,129.2 624.5,128.3 622.6,128.3 622.6,127.3 621.6,127.3 621.6,126.4 619.7,126.4 619.7,125.4 617.8,125.4 617.8,124.4 616.9,124.4 616.9,123.5 615,123.5 615,122.5 613,122.5 613,121.5 612.1,121.5 612.1,120.6 610.2,120.6 610.2,119.6 608.3,119.6 608.3,118.6 607.3,118.6 607.3,117.7 605.4,117.7 605.4,116.7 604.4,116.7 604.4,115.7 602.5,115.7 602.5,114.8 600.6,114.8 600.6,113.8 599.7,113.8 599.7,112.8 597.7,112.8 597.7,111.9 595.8,111.9 595.8,110.9 594.9,110.9 594.9,110 593,110 593,109 591,109 591,108 590.1,108 590.1,107.1 589.1,107.1 589.1,105.1 590.1,105.1 590.1,104.2 591,104.2 591,103.2 592,103.2 592,102.2 593,102.2 593,101.3 593.9,101.3 593.9,99.3 594.9,99.3 594.9,98.4 595.8,98.4 595.8,97.4 596.8,97.4 596.8,96.5 597.7,96.5 597.7,95.5 598.7,95.5 598.7,94.5 599.7,94.5 599.7,92.6 600.6,92.6 600.6,91.6 601.6,91.6 601.6,90.7 602.5,90.7 602.5,89.7 603.5,89.7 603.5,88.7 604.4,88.7 604.4,86.8 605.4,86.8 605.4,85.8 606.3,85.8 606.3,84.9 607.3,84.9 607.3,83.9 608.3,83.9 608.3,82.9 609.2,82.9 609.2,81 610.2,81 610.2,80.1 611.1,80.1 611.1,79.1 612.1,79.1 612.1,78.1 613,78.1 613,77.2 614,77.2 614,76.2 615,76.2 615,74.3 615.9,74.3 615.9,73.3 616.9,73.3 616.9,72.3 617.8,72.3 617.8,71.4 618.8,71.4 618.8,70.4 619.7,70.4 619.7,68.5 620.7,68.5 620.7,67.5 621.6,67.5 621.6,66.6 622.6,66.6 622.6,65.6 623.6,65.6 623.6,64.6 624.5,64.6 624.5,63.7 625.5,63.7 625.5,61.7 626.4,61.7 626.4,60.8 627.4,60.8 627.4,59.8 628.3,59.8 628.3,58.8 629.3,58.8 629.3,57.9 630.3,57.9 630.3,55.9 631.2,55.9 631.2,55 632.2,55 632.2,54 633.1,54 633.1,53 634.1,53 634.1,52.1 635,52.1 635,50.2 636,50.2 636,49.2 636.9,49.2 636.9,48.2 637.9,48.2 637.9,47.3 638.9,47.3 638.9,46.3 639.8,46.3 639.8,45.3 640.8,45.3 640.8,43.4 641.7,43.4 641.7,42.4 642.7,42.4 642.7,41.5 643.6,41.5 643.6,40.5 644.6,40.5 644.6,39.5 645.6,39.5 645.6,37.6 646.5,37.6 646.5,36.7 647.5,36.7 647.5,35.7 648.4,35.7 648.4,34.7 649.4,34.7 649.4,33.8 650.3,33.8 650.3,32.8 651.3,32.8 651.3,30.9 652.3,30.9 652.3,29.9 653.2,29.9 653.2,28.9 654.2,28.9 654.2,28 655.1,28 655.1,27 656.1,27 656.1,25.1 657,25.1 657,24.1 658,24.1 658,23.1 658.9,23.1 658.9,22.2 659.9,22.2 659.9,21.2 660.9,21.2 660.9,20.3 661.8,20.3 661.8,18.3 662.8,18.3 662.8,17.4 663.7,17.4 663.7,16.4 664.7,16.4 664.7,15.4 665.6,15.4 665.6,14.5 666.6,14.5 666.6,12.5 667.6,12.5 667.6,11.6 668.5,11.6 668.5,10.6 669.5,10.6 669.5,9.6 670.4,9.6 670.4,8.7 671.4,8.7 671.4,7.7 636,7.7 636,6.8 604.4,6.8 604.4,5.8 553.7,5.8 553.7,4.8 499.2,4.8 499.2,3.9 450.5,3.9 450.5,2.9 396.9,2.9 396.9,1.9 371.1,1.9 371.1,1 312.7,1 "/>
 </g>
</svg>
